<svg width="32" height="32" viewBox="0 0 32 32" fill="none" xmlns="http://www.w3.org/2000/svg">
<rect width="32" height="32" rx="1" fill="white"/>
<path d="M8.925 26.2C8.64886 26.2 8.425 25.9761 8.425 25.7V6.3C8.425 6.02386 8.64886 5.8 8.925 5.8H23.075C23.3511 5.8 23.575 6.02386 23.575 6.3V10.1C23.575 10.3761 23.3511 10.6 23.075 10.6H15.045C14.7689 10.6 14.545 10.8239 14.545 11.1V13.82C14.545 14.0961 14.7689 14.32 15.045 14.32H21.875C22.1511 14.32 22.375 14.5439 22.375 14.82V18.62C22.375 18.8961 22.1511 19.12 21.875 19.12H15.045C14.7689 19.12 14.545 19.3439 14.545 19.62V25.7C14.545 25.9761 14.3211 26.2 14.045 26.2H8.925Z" fill="black"/>
</svg>
